<svg width="1173" height="1397" viewBox="0 0 1173 1397" fill="none" xmlns="http://www.w3.org/2000/svg">
<path d="M119.81 415.859C147.122 385.979 178.166 358.315 207.454 330.346L355.737 188.353C396.096 148.847 436.776 109.662 477.772 70.8084C495.558 53.9446 512.678 34.8386 532.295 20.1768C547.037 9.15669 565.301 0.549243 583.965 0.027579C621.114 -1.01073 648.927 27.4701 673.421 51.4968C708.899 86.3078 745.561 119.955 781.49 154.31L975.926 340.724L1038.93 401.177C1047.59 409.343 1065.96 423.749 1072.01 433.129C1091.58 450.685 1110.04 469.53 1128.92 487.824C1140.71 499.255 1154.59 510.335 1164.35 523.573C1168.68 529.451 1172.01 535.862 1172.6 543.255C1173.01 548.472 1171.86 553.433 1168.42 557.476C1159.95 567.442 1143.14 569.499 1130.76 570.091C1107.06 571.22 1051.71 573.231 1031.02 565.165C1020.87 561.213 1012.32 554.21 1004.36 546.947C988.646 532.621 973.724 517.433 958.018 503.082C923.834 470.107 888.437 438.286 853.656 405.927L706.907 268.188L627.469 193.68C614.307 181.416 600.954 166.805 585.987 156.923C579.571 159.095 573.728 164.021 568.621 168.395C542.518 190.751 518.426 216.112 493.201 239.547L263.894 456.825C240.214 478.168 217.316 500.449 194.277 522.479C182.75 533.494 171.525 545.593 158.98 555.429C152.424 560.571 145.742 565.286 137.596 567.463C116.078 573.211 73.3264 570.748 49.8967 570.407C34.9841 570.191 15.4418 569.128 4.70753 557.3C0.880325 553.087 -0.474014 548.091 0.142954 542.468C1.00069 534.633 5.05863 527.776 9.82885 521.687C27.0789 499.691 54.075 477.982 74.6958 458.53C89.5482 444.525 103.899 428.509 119.81 415.859Z" fill="url(#paint0_linear_1216_1430)"/>
<path d="M119.81 415.859L121.916 414.956C126.762 412.834 129.917 409.609 135.229 408.335C136.939 410.191 135.756 410.898 136.709 412.242C137.511 413.376 140.962 414.966 142.377 415.809C160.71 426.729 190.906 418.437 204.435 435.727C207.128 439.168 209.977 440.498 213.9 442.213C218.805 441.897 222.863 441.385 227.493 443.251C233.282 449.235 229.956 459.634 240.75 459.789C245.546 459.859 250.246 458.134 254.665 456.494L256.932 455.666L258.382 455.119C260.102 455.681 262.119 456.609 263.894 456.825C240.214 478.168 217.316 500.449 194.277 522.479C182.75 533.494 171.525 545.593 158.98 555.429C152.424 560.571 145.742 565.286 137.596 567.463C116.078 573.211 73.3264 570.748 49.8967 570.407C34.9841 570.191 15.4418 569.128 4.70753 557.3C0.880325 553.087 -0.474014 548.091 0.142954 542.468C1.00069 534.633 5.05863 527.776 9.82885 521.687C27.0789 499.691 54.075 477.982 74.6958 458.53C89.5482 444.525 103.899 428.509 119.81 415.859Z" fill="#59AF28"/>
<path d="M1072.01 433.129C1091.58 450.685 1110.04 469.53 1128.92 487.823C1140.71 499.255 1154.59 510.335 1164.35 523.572C1168.68 529.451 1172.01 535.862 1172.6 543.255C1173.02 548.472 1171.86 553.433 1168.42 557.476C1159.95 567.442 1143.14 569.499 1130.77 570.091C1107.06 571.219 1051.71 573.231 1031.02 565.165C1020.88 561.212 1012.32 554.21 1004.36 546.947C988.647 532.621 973.725 517.433 958.02 503.082L959.966 500.619C962.077 500.353 963.517 500.093 965.338 498.924C986.039 485.621 1011.14 479.868 1032.53 468.246C1043.64 462.212 1054.58 449.862 1064.84 442.007L1067.67 443.748L1069.49 441.33L1075.2 442.118L1076.11 441.134C1074.48 439.028 1072.94 437.227 1072.26 434.589C1072.14 434.112 1072.09 433.615 1072.01 433.129Z" fill="#59AF28"/>
<path d="M567.441 499.842C680.522 489.123 780.832 572.218 791.34 685.314C801.849 798.414 718.563 898.569 605.442 908.862C492.628 919.129 392.799 836.115 382.321 723.315C371.837 610.52 454.666 510.536 567.441 499.842Z" fill="url(#paint1_linear_1216_1430)"/>
<path d="M933.955 837.108L935.6 838.617C946.806 836.039 962.591 827.763 973.601 830.532C978.477 834.444 978.251 837.273 978.923 843.297C979.274 846.447 974.93 852.14 973.039 854.985C964.181 868.267 946.811 922.49 941.348 940.347C939.382 946.792 939.532 955.114 935.976 960.712L933.192 960.506L932.344 962.061C907.229 975.018 881.718 988.094 857.942 1003.38C764.574 1063.41 677.697 1147.51 617.365 1240.82C606.239 1258.37 595.946 1276.43 586.526 1294.96C581.36 1305.35 576.956 1317.86 570.751 1327.54C566.282 1339.01 549.247 1392.02 543.143 1396.18C539.777 1394.98 538.102 1393.05 535.905 1390.36C530.212 1383.42 526.224 1375 520.897 1367.75C514.145 1358.54 504.264 1348.94 498.701 1339.2C498.536 1338.92 498.49 1338.57 498.38 1338.26C479.41 1321.29 462.024 1303.18 441.805 1287.53C404.902 1258.96 366.926 1231.71 329.341 1204.04C309.041 1189.1 287.949 1174.63 268.517 1158.57C220.358 1118.78 178.339 1066.67 153.5 1009.07C157.071 1009.53 159.324 1010.73 162.378 1012.49C164.024 1013.43 163.066 1013.19 165.112 1013.1C165.017 1007.36 175.039 997.695 177.848 992.067C186.731 974.27 192.474 955.751 202.316 938.175C205.576 936.224 210.371 933.982 212.679 931.002C215.232 927.696 213.847 924.431 213.16 920.589C316.495 1028.91 452.123 1114.03 505.317 1260.85C512.279 1280.06 518.595 1300.02 521.93 1320.19C525.055 1302.65 531.23 1285.39 535.544 1268.06C554.384 1192.41 573.936 1115.77 615.203 1048.75C631.796 1022.12 651.87 997.815 674.878 976.482C736.294 920.127 852.906 856.494 933.955 837.108Z" fill="url(#paint2_linear_1216_1430)"/>
<path d="M498.383 1338.26C507.015 1337.67 514.875 1360.71 524.205 1363.98C524.331 1364.02 527.39 1364.69 527.847 1364.4C528.775 1363.83 531.122 1359.97 531.96 1358.89C539.253 1349.44 546.787 1346.17 557.687 1342.05L560.947 1343.58C565.161 1339.99 564.037 1333.26 568.993 1329C569.57 1328.5 570.167 1328.02 570.754 1327.54C566.284 1339.01 549.25 1392.02 543.146 1396.18C539.78 1394.98 538.105 1393.05 535.908 1390.36C530.214 1383.42 526.227 1375 520.9 1367.75C514.148 1358.54 504.267 1348.94 498.704 1339.2C498.538 1338.92 498.493 1338.57 498.383 1338.26Z" fill="#59AF28"/>
<path d="M933.957 837.108C984.258 818.569 1049.96 810.653 1103.38 811.396C1104.01 841.206 1099.09 870.459 1092.36 899.407C1072.19 986.073 1032.17 1068.09 970.283 1132.7C901.514 1204.49 812.5 1247.89 718.911 1277.89C704.681 1282.54 690.345 1286.86 675.914 1290.86C662.105 1294.55 648.186 1297.07 634.898 1302.52C698.597 1192.63 776.319 1107.39 868.373 1020.97C883.802 1006.59 899.477 992.468 915.393 978.624C919.717 974.847 927.983 969.801 931.259 965.532C931.635 965.041 932.267 962.724 932.347 962.061L933.195 960.506L935.979 960.712C939.535 955.114 939.385 946.793 941.351 940.347C946.813 922.49 964.184 868.267 973.042 854.985C974.933 852.141 979.277 846.448 978.926 843.298C978.254 837.273 978.479 834.444 973.604 830.532C962.594 827.763 946.808 836.039 935.603 838.618L933.957 837.108Z" fill="#59AF28"/>
<path d="M153.502 1009.07C141.73 986.845 132.851 961.69 125.929 937.518C109.667 880.692 106.663 821.719 110.259 762.996C110.926 752.152 110.651 736.121 115.932 726.63C120.101 728.777 127.364 763.302 129.265 769.823C145.923 826.84 175.482 875.204 213.163 920.589C213.85 924.431 215.234 927.697 212.681 931.002C210.374 933.982 205.578 936.224 202.318 938.175C192.477 955.751 186.733 974.27 177.85 992.067C175.041 997.695 165.019 1007.36 165.114 1013.1C163.068 1013.19 164.026 1013.43 162.381 1012.49C159.326 1010.73 157.074 1009.53 153.502 1009.07Z" fill="#F8E721"/>
<path d="M580.992 366.211C584.212 366.211 587.332 366.331 590.482 367.074C594.706 368.077 598.568 370.068 600.755 373.986C605.876 383.16 606.152 452.16 601.417 462.473C599.165 467.384 594.811 468.949 590.211 471.045C589.625 471.03 589.033 471.045 588.446 471.005C582.943 470.649 577.18 469.094 573.769 464.439C566.004 453.83 567.875 391.993 570.749 377.788C571.988 371.678 576.162 369.441 580.992 366.211Z" fill="url(#paint3_linear_1216_1430)"/>
<path d="M736.31 411.279C737.966 411.249 739.631 411.229 741.286 411.324C746.498 411.62 752.944 413.872 756.209 418.176C758.662 421.416 759.254 425.6 758.742 429.537C756.65 445.734 725.406 488.109 712.078 498.021C710.764 498.442 709.53 498.683 708.141 498.733C702.819 498.928 698.756 497.022 695.009 493.27C691.869 490.12 690.66 486.103 690.725 481.714C690.971 464.905 723.73 422.961 736.31 411.279Z" fill="#FE9D03"/>
<path d="M428.515 411.359C429.152 411.344 429.794 411.304 430.436 411.309C436.837 411.364 439.746 413.581 444.06 417.94C453.821 427.802 485.331 470.282 483.691 483.239C482.803 490.211 474.467 495.457 469.29 499.455C467.68 499.234 466.075 498.969 464.505 498.562C452.672 495.523 427.111 455.57 420.61 443.868C417.224 437.773 413.833 429.452 416.191 422.404C418.217 416.355 423.218 414.058 428.515 411.359Z" fill="#FEBE21"/>
<path d="M314.532 522.941C316.754 522.977 318.991 523.057 321.188 523.428C335.464 525.866 379.319 550.274 386.873 562.237C389.341 566.144 390.635 570.899 389.446 575.464C387.706 582.155 383.041 584.814 377.353 588.054C375.742 588.265 373.756 588.641 372.106 588.501C361.061 587.588 313.138 558.134 306.747 549.17C304.019 545.338 302.293 540.422 303.326 535.707C304.721 529.367 309.381 526.237 314.532 522.941Z" fill="#FE9D03"/>
<path d="M852.125 522.977C854.021 523.027 855.912 523.217 857.783 523.543C862.969 524.471 866.39 528.243 869.174 532.507C871.095 535.451 871.627 538.371 870.624 541.767C865.974 557.452 819.305 580.761 804.192 588.285C801.052 588.526 797.16 589.002 794.165 587.899C789.942 586.339 786.877 581.348 785.467 577.315C783.862 572.74 784.379 567.579 786.641 563.315C794.025 549.381 836.535 528.193 852.125 522.977Z" fill="#FE9D03"/>
<path d="M837.383 675.272C856.338 674.84 885 671.665 902.601 677.454C907.476 679.054 913.415 682.164 915.346 687.285C917.017 691.724 915.071 696.484 912.773 700.292C909.322 706.005 903.739 707.991 897.605 709.666C879.958 710.72 840.447 714.096 825.746 705.423C822.525 703.522 819.701 700.708 819.064 696.871C818.377 692.722 820.288 688.258 822.42 684.802C826.006 678.979 831.017 676.947 837.383 675.272Z" fill="#FB7500"/>
<path d="M274.992 675.136C297.97 674.745 323.778 672.222 346.194 677.594C346.42 677.955 346.651 678.306 346.871 678.672C350.307 684.315 354.305 690.962 351.928 697.828C349.63 704.46 344.373 707.058 338.344 709.666C321.139 709.922 283.073 713.388 268.537 707.038C264.072 705.087 260.752 702.162 259.101 697.512C257.807 693.856 258.69 688.765 260.441 685.404C263.43 679.655 269.239 677.243 274.992 675.136Z" fill="#FE9D03"/>
<defs>
<linearGradient id="paint0_linear_1216_1430" x1="665.906" y1="13.1776" x2="589.168" y2="513.276" gradientUnits="userSpaceOnUse">
<stop stop-color="#D1DA26"/>
<stop offset="1" stop-color="#6DB42B"/>
</linearGradient>
<linearGradient id="paint1_linear_1216_1430" x1="695.791" y1="875.071" x2="477.056" y2="531.587" gradientUnits="userSpaceOnUse">
<stop stop-color="#F76B00"/>
<stop offset="1" stop-color="#FFC51C"/>
</linearGradient>
<linearGradient id="paint2_linear_1216_1430" x1="774.502" y1="1134.06" x2="366.395" y2="758.729" gradientUnits="userSpaceOnUse">
<stop stop-color="#6BB327"/>
<stop offset="1" stop-color="#F4E423"/>
</linearGradient>
<linearGradient id="paint3_linear_1216_1430" x1="598.163" y1="465.502" x2="574.82" y2="370.977" gradientUnits="userSpaceOnUse">
<stop stop-color="#FFAB0C"/>
<stop offset="1" stop-color="#FFC62D"/>
</linearGradient>
</defs>
</svg>
